<svg width="311" height="26" viewBox="0 0 311 26" fill="none" xmlns="http://www.w3.org/2000/svg">
<path d="M6.65897 24.1205C4.58625 23.0841 3.0317 21.5295 1.82261 19.6295C0.613519 17.7295 0.0953369 15.4841 0.0953369 13.0659C0.0953369 10.6477 0.613519 8.40225 1.82261 6.50225C3.0317 4.60225 4.58625 3.04772 6.65897 2.01136C8.7317 0.974997 10.9772 0.284088 13.5681 0.284088C16.159 0.284088 18.4044 0.80227 20.4772 2.01136C22.5499 3.04772 24.1044 4.60225 25.3135 6.50225C26.5226 8.40225 27.0408 10.6477 27.0408 13.0659C27.0408 15.4841 26.5226 17.7295 25.3135 19.6295C24.1044 21.5295 22.5499 23.0841 20.4772 24.1205C18.4044 25.1568 16.159 25.8477 13.5681 25.8477C10.9772 25.8477 8.7317 25.3295 6.65897 24.1205ZM17.5408 19.975C18.7499 19.2841 19.6135 18.4205 20.3044 17.2114C20.9953 16.0023 21.3408 14.6204 21.3408 13.0659C21.3408 11.5114 20.9953 10.1295 20.3044 8.92045C19.6135 7.71136 18.7499 6.84771 17.5408 6.15681C16.3317 5.4659 15.1226 5.12046 13.5681 5.12046C12.0135 5.12046 10.8044 5.4659 9.59534 6.15681C8.38624 6.84771 7.52261 7.71136 6.8317 8.92045C6.14079 10.1295 5.79534 11.5114 5.79534 13.0659C5.79534 14.6204 6.14079 16.0023 6.8317 17.2114C7.52261 18.4205 8.38624 19.2841 9.59534 19.975C10.8044 20.6659 12.0135 21.0114 13.5681 21.0114C15.1226 21.0114 16.3317 20.6659 17.5408 19.975Z" fill="#F69B32"/>
<path d="M61.0681 0.802277V25.5023H56.4044L44.1408 10.475V25.5023H38.4408V0.802277H43.1044L55.3681 15.8295V0.802277H61.0681Z" fill="#F69B32"/>
<path d="M74.0226 0.802277H79.7226V20.8386H92.159V25.5023H74.0226V0.802277Z" fill="#F69B32"/>
<path d="M102.35 0.802277H108.05V25.5023H102.35V0.802277Z" fill="#F69B32"/>
<path d="M143.459 0.802277V25.5023H138.795L126.532 10.475V25.5023H120.832V0.802277H125.495L137.759 15.8295V0.802277H143.459Z" fill="#F69B32"/>
<path d="M175.414 20.8386V25.5023H156.414V0.802277H175.068V5.46591H162.114V10.8204H173.514V15.3114H162.114V21.0114H175.414V20.8386Z" fill="#F69B32"/>
<path d="M189.577 24.9841C187.677 24.4659 186.295 23.775 185.259 22.9113L187.159 18.5932C188.195 19.2841 189.404 19.975 190.959 20.4932C192.341 21.0113 193.895 21.1841 195.277 21.1841C196.832 21.1841 198.041 21.0113 198.904 20.4932C199.595 19.975 200.114 19.2841 200.114 18.5932C200.114 18.075 199.941 17.5568 199.423 17.2114C198.904 16.8659 198.386 16.5204 197.695 16.3477C197.004 16.175 195.968 15.8295 194.759 15.6568C192.859 15.1386 191.304 14.7932 190.095 14.275C188.886 13.7568 187.85 13.0659 186.986 12.2022C186.123 11.1659 185.777 9.95679 185.777 8.22951C185.777 6.8477 186.123 5.4659 186.986 4.25681C187.677 3.04772 188.886 2.18407 190.441 1.49316C191.995 0.802252 193.895 0.456787 196.141 0.456787C197.695 0.456787 199.25 0.62952 200.804 0.974974C202.359 1.32043 203.568 1.83863 204.777 2.52954L203.05 6.84772C200.804 5.63863 198.559 4.94771 196.141 4.94771C194.586 4.94771 193.377 5.29315 192.686 5.63861C191.995 6.15679 191.477 6.84772 191.477 7.71135C191.477 8.57499 191.995 9.26588 192.859 9.61134C193.723 9.95679 195.104 10.475 196.832 10.8204C198.732 11.3386 200.286 11.6841 201.495 12.2022C202.704 12.7204 203.741 13.4113 204.604 14.275C205.468 15.3113 205.814 16.5204 205.814 18.2477C205.814 19.6295 205.468 21.0113 204.604 22.0477C203.741 23.2568 202.704 24.1204 201.15 24.8113C199.595 25.5023 197.695 25.8477 195.45 25.8477C193.204 25.8477 191.304 25.5023 189.577 24.9841Z" fill="#3C4D61"/>
<path d="M239.15 0.802277V25.5023H233.45V15.3114H222.223V25.5023H216.523V0.802277H222.223V10.475H233.45V0.802277H239.15Z" fill="#3C4D61"/>
<path d="M257.114 24.1205C255.041 23.0841 253.486 21.5295 252.277 19.6295C251.068 17.7295 250.55 15.4841 250.55 13.0659C250.55 10.6477 251.068 8.40225 252.277 6.50225C253.486 4.60225 255.041 3.04772 257.114 2.01136C259.186 0.974997 261.432 0.284088 264.023 0.284088C266.614 0.284088 268.859 0.80227 270.932 2.01136C273.004 3.04772 274.559 4.60225 275.768 6.50225C276.977 8.40225 277.495 10.6477 277.495 13.0659C277.495 15.4841 276.977 17.7295 275.768 19.6295C274.559 21.5295 273.004 23.0841 270.932 24.1205C268.859 25.1568 266.614 25.8477 264.023 25.8477C261.432 25.8477 259.186 25.3295 257.114 24.1205ZM267.995 19.975C269.204 19.2841 270.068 18.4205 270.759 17.2114C271.45 16.0023 271.795 14.6204 271.795 13.0659C271.795 11.5114 271.45 10.1295 270.759 8.92045C270.068 7.71136 269.204 6.84771 267.995 6.15681C266.786 5.4659 265.577 5.12046 264.023 5.12046C262.468 5.12046 261.259 5.4659 260.05 6.15681C258.841 6.84771 257.977 7.71136 257.286 8.92045C256.595 10.1295 256.25 11.5114 256.25 13.0659C256.25 14.6204 256.595 16.0023 257.286 17.2114C257.977 18.4205 258.841 19.2841 260.05 19.975C261.259 20.6659 262.468 21.0114 264.023 21.0114C265.577 21.0114 266.786 20.6659 267.995 19.975Z" fill="#3C4D61"/>
<path d="M305.304 1.83863C306.859 2.52954 308.068 3.56591 309.105 4.94773C309.968 6.32955 310.486 7.8841 310.486 9.7841C310.486 11.5114 309.968 13.2386 309.105 14.4477C308.241 15.8295 307.032 16.8659 305.304 17.5568C303.75 18.2477 301.85 18.5932 299.604 18.5932H294.595V25.3296H288.895V0.629547H299.604C301.677 0.802274 303.577 1.14772 305.304 1.83863ZM303.059 12.8932C303.923 12.2023 304.441 11.1659 304.441 9.7841C304.441 8.40228 303.923 7.36591 303.059 6.675C302.195 5.98409 300.814 5.63863 299.086 5.63863H294.423V14.275H299.086C300.986 13.9295 302.195 13.5841 303.059 12.8932Z" fill="#3C4D61"/>
</svg>
