<svg width="51" height="57" viewBox="0 0 51 57" fill="none" xmlns="http://www.w3.org/2000/svg">
<path d="M41.9265 6.05059L0.79541 14.9467L9.69156 56.0778L50.8226 47.1816L41.9265 6.05059Z" fill="#F69B32"/>
<path d="M43.172 10.7932H10.0328L7.20667 49.7782H45.9981L43.172 10.7932Z" fill="#3C4D61"/>
<path d="M16.6916 15.2841C16.6916 16.3294 15.8398 17.1811 14.7946 17.1811C13.7493 17.1811 12.8976 16.3294 12.8976 15.2841C12.8976 14.2388 13.7493 13.3871 14.7946 13.3871C15.8398 13.3871 16.6916 14.2388 16.6916 15.2841Z" fill="#F2F2F2"/>
<path d="M40.2683 15.2841C40.2683 16.3294 39.4166 17.1811 38.3714 17.1811C37.3261 17.1811 36.4744 16.3294 36.4744 15.2841C36.4744 14.2388 37.3261 13.3871 38.3714 13.3871C39.4166 13.3871 40.2683 14.2388 40.2683 15.2841Z" fill="#F2F2F2"/>
<path d="M38.4101 15.8648C37.9842 15.8648 37.5971 15.5164 37.5971 15.0518V13.3871C37.5971 7.309 32.6417 2.39233 26.6023 2.39233C20.5242 2.39233 15.6076 7.34772 15.6076 13.3871V15.0518C15.6076 15.4777 15.2591 15.8648 14.7946 15.8648C14.3687 15.8648 13.9816 15.5164 13.9816 15.0518V13.3871C14.0203 6.45729 19.6725 0.805054 26.6023 0.805054C33.5321 0.805054 39.1844 6.45729 39.1844 13.3871V15.0518C39.2231 15.5164 38.8747 15.8648 38.4101 15.8648Z" fill="#232F3E"/>
<path d="M18.4899 16.3472L11.3916 39.6415L34.6859 46.7398L41.7842 23.4456L18.4899 16.3472Z" fill="#F2F2F2"/>
<path opacity="0.3" d="M24.3356 18.5445L10.7379 36.6558L28.8493 50.2535L42.4469 32.1421L24.3356 18.5445Z" fill="#351945"/>
<path d="M22.9011 14.7209L9.76367 35.2245L30.2673 48.3619L43.4047 27.8583L22.9011 14.7209Z" fill="#F69B32"/>
<g opacity="0.3">
<path d="M32.4869 29.7631L26.2152 36.0347C27.5702 36.809 28.9252 36.6542 29.9705 35.5702C30.7448 34.7959 31.2093 33.7119 31.2093 32.5118L34.1903 32.4731C34.2677 34.37 33.4935 36.3057 31.8675 37.9317C28.9639 40.8353 25.3248 40.8353 22.6148 38.1253C19.8661 35.3766 19.9048 31.6601 22.6923 28.9114C25.8281 25.8143 29.4285 26.3175 32.4869 29.7631ZM28.2283 30.9632C27.1444 29.8792 25.7507 29.8405 24.7054 30.8858C23.6988 31.8924 23.7762 33.2861 24.6667 34.5249L28.2283 30.9632Z" fill="#351945"/>
</g>
<path d="M31.4416 26.9757C28.6929 24.227 24.2021 24.227 21.4534 26.9757C18.7047 29.7244 18.7047 34.2152 21.4534 36.9639C24.2021 39.7126 28.6929 39.7126 31.4416 36.9639C32.9127 35.4928 33.5708 33.5571 33.4934 31.6601L30.2027 32.5505C30.0866 33.3248 29.7382 34.0604 29.1187 34.6411C27.8799 35.8799 26.0216 36.0735 24.5505 35.2605L32.0997 27.75C31.9061 27.479 31.6739 27.208 31.4416 26.9757ZM22.8471 33.1699C22.3825 31.8537 22.6922 30.3051 23.7762 29.2598C24.8215 28.2146 26.37 27.9048 27.6863 28.3307L22.8471 33.1699Z" fill="#F2F2F2"/>
</svg>
