<svg width="379" height="57" viewBox="0 0 379 57" fill="none" xmlns="http://www.w3.org/2000/svg">
<path d="M41.9265 6.05059L0.79541 14.9467L9.69156 56.0778L50.8226 47.1816L41.9265 6.05059Z" fill="#F69B32"/>
<path d="M43.172 10.7932H10.0328L7.20667 49.7782H45.9981L43.172 10.7932Z" fill="#3C4D61"/>
<path d="M16.6916 15.2841C16.6916 16.3294 15.8398 17.1811 14.7946 17.1811C13.7493 17.1811 12.8976 16.3294 12.8976 15.2841C12.8976 14.2388 13.7493 13.3871 14.7946 13.3871C15.8398 13.3871 16.6916 14.2388 16.6916 15.2841Z" fill="#F2F2F2"/>
<path d="M40.2683 15.2841C40.2683 16.3294 39.4166 17.1811 38.3714 17.1811C37.3261 17.1811 36.4744 16.3294 36.4744 15.2841C36.4744 14.2388 37.3261 13.3871 38.3714 13.3871C39.4166 13.3871 40.2683 14.2388 40.2683 15.2841Z" fill="#F2F2F2"/>
<path d="M38.4101 15.8648C37.9842 15.8648 37.5971 15.5164 37.5971 15.0518V13.3871C37.5971 7.309 32.6417 2.39233 26.6023 2.39233C20.5242 2.39233 15.6076 7.34772 15.6076 13.3871V15.0518C15.6076 15.4777 15.2591 15.8648 14.7946 15.8648C14.3687 15.8648 13.9816 15.5164 13.9816 15.0518V13.3871C14.0203 6.45729 19.6725 0.805054 26.6023 0.805054C33.5321 0.805054 39.1844 6.45729 39.1844 13.3871V15.0518C39.2231 15.5164 38.8747 15.8648 38.4101 15.8648Z" fill="#232F3E"/>
<path d="M18.4899 16.3472L11.3916 39.6415L34.6859 46.7398L41.7842 23.4456L18.4899 16.3472Z" fill="#F2F2F2"/>
<path opacity="0.3" d="M24.3356 18.5445L10.7379 36.6558L28.8493 50.2535L42.4469 32.1421L24.3356 18.5445Z" fill="#351945"/>
<path d="M22.9011 14.7209L9.76367 35.2245L30.2673 48.3619L43.4047 27.8583L22.9011 14.7209Z" fill="#F69B32"/>
<g opacity="0.3">
<path d="M32.4869 29.7631L26.2152 36.0347C27.5702 36.809 28.9252 36.6542 29.9705 35.5702C30.7448 34.7959 31.2093 33.7119 31.2093 32.5118L34.1903 32.4731C34.2677 34.37 33.4935 36.3057 31.8675 37.9317C28.9639 40.8353 25.3248 40.8353 22.6148 38.1253C19.8661 35.3766 19.9048 31.6601 22.6923 28.9114C25.8281 25.8143 29.4285 26.3175 32.4869 29.7631ZM28.2283 30.9632C27.1444 29.8792 25.7507 29.8405 24.7054 30.8858C23.6988 31.8924 23.7762 33.2861 24.6667 34.5249L28.2283 30.9632Z" fill="#351945"/>
</g>
<path d="M31.4416 26.9757C28.6929 24.227 24.2021 24.227 21.4534 26.9757C18.7047 29.7244 18.7047 34.2152 21.4534 36.9639C24.2021 39.7126 28.6929 39.7126 31.4416 36.9639C32.9127 35.4928 33.5708 33.5571 33.4934 31.6601L30.2027 32.5505C30.0866 33.3248 29.7382 34.0604 29.1187 34.6411C27.8799 35.8799 26.0216 36.0735 24.5505 35.2605L32.0997 27.75C31.9061 27.479 31.6739 27.208 31.4416 26.9757ZM22.8471 33.1699C22.3825 31.8537 22.6922 30.3051 23.7762 29.2598C24.8215 28.2146 26.37 27.9048 27.6863 28.3307L22.8471 33.1699Z" fill="#F2F2F2"/>
<path d="M74.659 39.1205C72.5862 38.0841 71.0317 36.5295 69.8226 34.6295C68.6135 32.7295 68.0953 30.4841 68.0953 28.0659C68.0953 25.6477 68.6135 23.4023 69.8226 21.5023C71.0317 19.6023 72.5862 18.0477 74.659 17.0114C76.7317 15.975 78.9772 15.2841 81.5681 15.2841C84.159 15.2841 86.4044 15.8023 88.4772 17.0114C90.5499 18.0477 92.1044 19.6023 93.3135 21.5023C94.5226 23.4023 95.0408 25.6477 95.0408 28.0659C95.0408 30.4841 94.5226 32.7295 93.3135 34.6295C92.1044 36.5295 90.5499 38.0841 88.4772 39.1205C86.4044 40.1568 84.159 40.8477 81.5681 40.8477C78.9772 40.8477 76.7317 40.3295 74.659 39.1205ZM85.5408 34.975C86.7499 34.2841 87.6135 33.4205 88.3044 32.2114C88.9953 31.0023 89.3408 29.6204 89.3408 28.0659C89.3408 26.5114 88.9953 25.1295 88.3044 23.9205C87.6135 22.7114 86.7499 21.8477 85.5408 21.1568C84.3317 20.4659 83.1226 20.1205 81.5681 20.1205C80.0135 20.1205 78.8044 20.4659 77.5953 21.1568C76.3862 21.8477 75.5226 22.7114 74.8317 23.9205C74.1408 25.1295 73.7953 26.5114 73.7953 28.0659C73.7953 29.6204 74.1408 31.0023 74.8317 32.2114C75.5226 33.4205 76.3862 34.2841 77.5953 34.975C78.8044 35.6659 80.0135 36.0114 81.5681 36.0114C83.1226 36.0114 84.3317 35.6659 85.5408 34.975Z" fill="#F69B32"/>
<path d="M129.068 15.8023V40.5023H124.404L112.141 25.475V40.5023H106.441V15.8023H111.104L123.368 30.8295V15.8023H129.068Z" fill="#F69B32"/>
<path d="M142.023 15.8023H147.723V35.8386H160.159V40.5023H142.023V15.8023Z" fill="#F69B32"/>
<path d="M170.35 15.8023H176.05V40.5023H170.35V15.8023Z" fill="#F69B32"/>
<path d="M211.459 15.8023V40.5023H206.795L194.532 25.475V40.5023H188.832V15.8023H193.495L205.759 30.8295V15.8023H211.459Z" fill="#F69B32"/>
<path d="M243.414 35.8386V40.5023H224.414V15.8023H243.068V20.4659H230.114V25.8204H241.514V30.3114H230.114V36.0114H243.414V35.8386Z" fill="#F69B32"/>
<path d="M257.577 39.9841C255.677 39.4659 254.295 38.775 253.259 37.9113L255.159 33.5932C256.195 34.2841 257.404 34.975 258.959 35.4932C260.341 36.0113 261.895 36.1841 263.277 36.1841C264.832 36.1841 266.041 36.0113 266.904 35.4932C267.595 34.975 268.114 34.2841 268.114 33.5932C268.114 33.075 267.941 32.5568 267.423 32.2114C266.904 31.8659 266.386 31.5204 265.695 31.3477C265.004 31.175 263.968 30.8295 262.759 30.6568C260.859 30.1386 259.304 29.7932 258.095 29.275C256.886 28.7568 255.85 28.0659 254.986 27.2022C254.123 26.1659 253.777 24.9568 253.777 23.2295C253.777 21.8477 254.123 20.4659 254.986 19.2568C255.677 18.0477 256.886 17.1841 258.441 16.4932C259.995 15.8023 261.895 15.4568 264.141 15.4568C265.695 15.4568 267.25 15.6295 268.804 15.975C270.359 16.3204 271.568 16.8386 272.777 17.5295L271.05 21.8477C268.804 20.6386 266.559 19.9477 264.141 19.9477C262.586 19.9477 261.377 20.2932 260.686 20.6386C259.995 21.1568 259.477 21.8477 259.477 22.7114C259.477 23.575 259.995 24.2659 260.859 24.6113C261.723 24.9568 263.104 25.475 264.832 25.8204C266.732 26.3386 268.286 26.6841 269.495 27.2022C270.704 27.7204 271.741 28.4113 272.604 29.275C273.468 30.3113 273.814 31.5204 273.814 33.2477C273.814 34.6295 273.468 36.0113 272.604 37.0477C271.741 38.2568 270.704 39.1204 269.15 39.8113C267.595 40.5023 265.695 40.8477 263.45 40.8477C261.204 40.8477 259.304 40.5023 257.577 39.9841Z" fill="#3C4D61"/>
<path d="M307.15 15.8023V40.5023H301.45V30.3114H290.223V40.5023H284.523V15.8023H290.223V25.475H301.45V15.8023H307.15Z" fill="#3C4D61"/>
<path d="M325.114 39.1205C323.041 38.0841 321.486 36.5295 320.277 34.6295C319.068 32.7295 318.55 30.4841 318.55 28.0659C318.55 25.6477 319.068 23.4023 320.277 21.5023C321.486 19.6023 323.041 18.0477 325.114 17.0114C327.186 15.975 329.432 15.2841 332.023 15.2841C334.614 15.2841 336.859 15.8023 338.932 17.0114C341.004 18.0477 342.559 19.6023 343.768 21.5023C344.977 23.4023 345.495 25.6477 345.495 28.0659C345.495 30.4841 344.977 32.7295 343.768 34.6295C342.559 36.5295 341.004 38.0841 338.932 39.1205C336.859 40.1568 334.614 40.8477 332.023 40.8477C329.432 40.8477 327.186 40.3295 325.114 39.1205ZM335.995 34.975C337.204 34.2841 338.068 33.4205 338.759 32.2114C339.45 31.0023 339.795 29.6204 339.795 28.0659C339.795 26.5114 339.45 25.1295 338.759 23.9205C338.068 22.7114 337.204 21.8477 335.995 21.1568C334.786 20.4659 333.577 20.1205 332.023 20.1205C330.468 20.1205 329.259 20.4659 328.05 21.1568C326.841 21.8477 325.977 22.7114 325.286 23.9205C324.595 25.1295 324.25 26.5114 324.25 28.0659C324.25 29.6204 324.595 31.0023 325.286 32.2114C325.977 33.4205 326.841 34.2841 328.05 34.975C329.259 35.6659 330.468 36.0114 332.023 36.0114C333.577 36.0114 334.786 35.6659 335.995 34.975Z" fill="#3C4D61"/>
<path d="M373.304 16.8386C374.859 17.5295 376.068 18.5659 377.105 19.9477C377.968 21.3295 378.486 22.8841 378.486 24.7841C378.486 26.5114 377.968 28.2386 377.105 29.4477C376.241 30.8295 375.032 31.8659 373.304 32.5568C371.75 33.2477 369.85 33.5932 367.604 33.5932H362.595V40.3296H356.895V15.6295H367.604C369.677 15.8023 371.577 16.1477 373.304 16.8386ZM371.059 27.8932C371.923 27.2023 372.441 26.1659 372.441 24.7841C372.441 23.4023 371.923 22.3659 371.059 21.675C370.195 20.9841 368.814 20.6386 367.086 20.6386H362.423V29.275H367.086C368.986 28.9295 370.195 28.5841 371.059 27.8932Z" fill="#3C4D61"/>
</svg>
